<svg width="33" height="29" viewBox="0 0 33 29" fill="none" xmlns="http://www.w3.org/2000/svg">
<path d="M28.9926 19.7608H9.16952L4.61424 1.42141H0.892578V0H5.67411L6.91314 4.9939H32.9997L28.9926 19.7608ZM10.2294 18.3394H27.9585L31.1928 6.41531H7.26997L10.2294 18.3394Z" fill="black"/>
<path d="M10.8383 29C9.85204 28.9988 8.9065 28.5907 8.2091 27.8653C7.5117 27.1399 7.11937 26.1565 7.11816 25.1306C7.11937 24.1048 7.5117 23.1213 8.2091 22.3959C8.9065 21.6705 9.85204 21.2625 10.8383 21.2612C11.8246 21.2625 12.7701 21.6705 13.4675 22.3959C14.1649 23.1213 14.5573 24.1048 14.5585 25.1306C14.5573 26.1565 14.1649 27.1399 13.4675 27.8653C12.7701 28.5907 11.8246 28.9988 10.8383 29ZM10.8383 22.6826C10.2142 22.683 9.61583 22.9411 9.17454 23.4001C8.73324 23.8591 8.48515 24.4815 8.48475 25.1306C8.48515 25.7797 8.73324 26.4021 9.17454 26.8611C9.61583 27.3201 10.2142 27.5782 10.8383 27.5786C11.4624 27.5782 12.0608 27.3201 12.5021 26.8611C12.9434 26.4021 13.1915 25.7797 13.1919 25.1306C13.1915 24.4815 12.9434 23.8591 12.5021 23.4001C12.0608 22.9411 11.4624 22.683 10.8383 22.6826Z" fill="black"/>
<path d="M27.3891 29C26.4028 28.9988 25.4573 28.5907 24.7599 27.8653C24.0625 27.1399 23.6702 26.1565 23.6689 25.1306C23.6702 24.1048 24.0625 23.1213 24.7599 22.3959C25.4573 21.6705 26.4028 21.2625 27.3891 21.2612C28.3754 21.2625 29.3209 21.6705 30.0183 22.3959C30.7157 23.1213 31.108 24.1048 31.1092 25.1306C31.108 26.1565 30.7157 27.1399 30.0183 27.8653C29.3209 28.5907 28.3754 28.9988 27.3891 29ZM27.3891 22.6826C26.765 22.683 26.1666 22.9411 25.7253 23.4001C25.284 23.8591 25.0359 24.4815 25.0355 25.1306C25.0359 25.7797 25.284 26.4021 25.7253 26.8611C26.1666 27.3201 26.765 27.5782 27.3891 27.5786C28.0132 27.5782 28.6116 27.3201 29.0529 26.8611C29.4942 26.4021 29.7423 25.7797 29.7427 25.1306C29.7423 24.4815 29.4942 23.8591 29.0529 23.4001C28.6116 22.9411 28.0132 22.683 27.3891 22.6826Z" fill="black"/>
<path d="M18.2518 9.411H16.4918L16.7558 8.234H19.5828V16H18.2518V9.411Z" fill="black"/>
</svg>
