<svg width="174" height="35" viewBox="0 0 174 35" fill="none" xmlns="http://www.w3.org/2000/svg">
<path d="M61.6228 13.168L55.3544 6.73195V13.168H53.0303V0H55.3544V5.29792L60.8794 0H63.7993L57.6217 5.94949L64.6166 13.168H61.6228Z" fill="black"/>
<path d="M76.6883 10.0154H69.6934L68.3909 13.168H65.8994L71.5181 0H74.8467L80.4454 13.168H77.9908L76.6883 10.0154ZM75.8711 8.05785L73.1923 1.56775H73.1554L70.4965 8.05785H75.8711Z" fill="black"/>
<path d="M86.4723 7.83307H84.6874V13.168H82.3633V0H88.7254C90.9019 0 92.4286 0.671487 93.0415 2.08844C93.2657 2.57214 93.3764 3.15258 93.3764 3.80415C93.3764 4.51262 93.2657 5.14712 93.0245 5.67065C92.4286 7.01363 91.163 7.74202 89.3213 7.816L94.3072 13.168H91.3304L86.4723 7.83307ZM84.6874 5.92957H88.1465C89.5796 5.92957 90.4905 5.66781 90.8253 4.88535C90.9558 4.60652 91.0126 4.28785 91.0126 3.85821C91.0126 3.50255 90.9558 3.20664 90.8452 2.96194C90.4905 2.1425 89.5256 1.89781 88.1465 1.89781H84.6874V5.92957Z" fill="black"/>
<path d="M96.745 0H99.0691V11.1734H106.141V13.168H96.7422V0H96.745Z" fill="black"/>
<path d="M52.8034 28.65C52.5622 28.0894 52.4316 27.418 52.4316 26.6725H54.8862C54.9061 27.1391 54.9799 27.5488 55.1275 27.9045C55.6127 28.9857 56.9124 29.4353 58.6434 29.4353C60.1502 29.4353 61.5094 29.0625 61.9181 28.2033C62.0117 27.9614 62.0656 27.7366 62.0656 27.4749C62.0656 27.2131 62.0089 27.0082 61.9181 26.8034C61.3959 25.6852 59.3499 25.4803 57.3976 25.0877C55.3687 24.6779 53.6575 24.0605 53.0247 22.6635C52.8573 22.2907 52.7637 21.8611 52.7637 21.3575C52.7637 20.834 52.8743 20.3702 53.0616 19.9405C53.7881 18.3187 55.9277 17.4794 58.3993 17.4794C60.9107 17.4794 62.9396 18.3187 63.7001 20.0544C63.9413 20.595 64.0549 21.1925 64.0549 21.9009H61.6542C61.6343 21.4343 61.5804 21.0616 61.413 20.7258C60.9674 19.7385 59.8692 19.3089 58.3795 19.3089C56.9663 19.3089 55.6808 19.7015 55.3289 20.521C55.2353 20.7258 55.2183 20.8937 55.2183 21.0986C55.2183 21.3234 55.2381 21.4912 55.3119 21.6762C55.7773 22.6834 57.6757 22.9082 59.5344 23.298C61.6911 23.7447 63.6093 24.3052 64.2961 25.836C64.4833 26.2457 64.5742 26.7123 64.5742 27.2728C64.5742 27.8704 64.4635 28.374 64.2592 28.8207C63.4958 30.5364 61.2824 31.3188 58.5838 31.3188C55.7262 31.316 53.6036 30.4396 52.8034 28.65Z" fill="black"/>
<path d="M67.5879 27.6427C67.1594 26.6924 66.9551 25.6083 66.9551 24.3962C66.9551 23.1642 67.1793 22.083 67.5879 21.1498C68.6123 18.8565 70.9733 17.4765 74.3785 17.4765C76.5351 17.4765 78.4165 18.074 79.6992 19.2121C80.7037 20.1625 81.2996 21.4314 81.3535 22.9224H78.916C78.8223 21.9521 78.4307 21.2067 77.8178 20.6461C77.0005 19.9007 75.7888 19.508 74.3586 19.508C72.1452 19.508 70.5817 20.3844 69.8949 21.9151C69.597 22.6066 69.4494 23.4089 69.4494 24.3962C69.4494 25.3836 69.5799 26.1859 69.8949 26.8773C70.6015 28.4622 72.202 29.2844 74.3586 29.2844C75.8286 29.2844 77.0942 28.8918 77.9114 28.1463C78.5244 27.6057 78.8961 26.8403 78.9529 25.853H81.3904C81.3337 27.4208 80.7406 28.6699 79.7361 29.5832C78.4704 30.7384 76.555 31.3188 74.3785 31.3188C70.9562 31.316 68.6123 29.973 67.5879 27.6427Z" fill="black"/>
<path d="M84.5205 17.8122H86.8446V23.3321H94.2481V17.8122H96.5722V30.9802H94.2481V25.3494H86.8446V30.9831H84.5205V17.8122Z" fill="black"/>
<path d="M99.977 27.6797C99.5485 26.7294 99.3271 25.6083 99.3271 24.3962C99.3271 23.2012 99.5513 22.083 99.96 21.1498C100.984 18.8565 103.308 17.4765 106.751 17.4765C110.193 17.4765 112.5 18.8365 113.504 21.0957C113.933 22.0659 114.154 23.1841 114.154 24.3962C114.154 25.6282 113.93 26.7664 113.484 27.7338C112.46 29.973 110.156 31.316 106.731 31.316C103.306 31.316 100.982 29.973 99.977 27.6797ZM111.214 26.8603C111.529 26.1319 111.68 25.3494 111.68 24.3991C111.68 23.4488 111.532 22.6635 111.214 21.9379C110.525 20.4271 108.981 19.5308 106.751 19.5308C104.5 19.5308 102.957 20.4271 102.287 21.9379C101.972 22.6663 101.821 23.4488 101.821 24.3991C101.821 25.3494 101.969 26.1347 102.287 26.8603C102.957 28.3711 104.5 29.2674 106.751 29.2674C108.981 29.2645 110.525 28.3711 111.214 26.8603Z" fill="black"/>
<path d="M116.904 17.8122H126.447V19.7527H119.231V23.352H126.394V25.2925H119.231V29.0426H126.45V30.9831H116.904V17.8122Z" fill="black"/>
<path d="M129.808 17.8122H132.674L137.566 27.5858L142.552 17.8122H145.361V30.9802H143.148V20.9648L138.105 30.9802H137.044L132.021 20.9648V30.9802H129.808V17.8122Z" fill="black"/>
<path d="M149.132 17.8122H158.675V19.7527H151.456V23.352H158.618V25.2925H151.456V29.0426H158.675V30.9831H149.132V17.8122Z" fill="black"/>
<path d="M166.144 25.6481H164.359V30.9831H162.035V17.8122H168.397C170.574 17.8122 172.1 18.4837 172.713 19.9007C172.938 20.3844 173.048 20.9648 173.048 21.6164C173.048 22.3249 172.938 22.9593 172.696 23.4829C172.1 24.8259 170.835 25.5542 168.993 25.6282L173.979 30.9802H171.002L166.144 25.6481ZM164.359 23.7446H167.818C169.251 23.7446 170.162 23.4829 170.497 22.7004C170.628 22.4216 170.684 22.1029 170.684 21.6733C170.684 21.3176 170.628 21.0217 170.517 20.777C170.162 19.9576 169.198 19.7129 167.818 19.7129H164.359V23.7446Z" fill="black"/>
<path d="M39.7035 0.48631V12.288C39.7035 12.6479 39.4892 12.9767 39.1509 13.145C34.2987 15.5685 29.9243 18.5616 26.1696 22.0053C25.5137 22.606 26.3142 23.5925 27.1018 23.1575C30.8668 21.0783 34.8514 19.3073 39.0063 17.8625C39.342 17.746 39.7009 17.9816 39.7009 18.3208V29.5502C39.7009 29.8299 39.5279 30.0862 39.2594 30.2079C36.2716 31.5543 33.4466 33.113 30.8152 34.853C30.5596 35.0238 30.2213 35.029 29.9579 34.8711C27.4453 33.359 24.8242 31.9919 22.1154 30.7698C21.8468 30.6481 21.6738 30.3943 21.6738 30.1147V10.8717C21.6738 10.6723 21.759 10.4833 21.9088 10.346C26.7067 5.98839 32.8217 2.40751 38.9934 0.0357868C39.3317 -0.0936739 39.7035 0.144534 39.7035 0.48631Z" fill="black"/>
<path d="M0 0.48689V12.2885C0 12.6484 0.214332 12.9773 0.552614 13.1456C5.40219 15.5717 9.77662 18.5622 13.5339 22.0084C14.1898 22.6091 13.3893 23.5956 12.6017 23.1606C8.83408 21.0789 4.84958 19.3079 0.694641 17.8657C0.358941 17.7466 0 17.9848 0 18.3214V29.3981C0 29.7735 0.229826 30.1127 0.588767 30.2758C3.53776 31.6144 6.32408 33.1576 8.92446 34.8794C9.15687 35.0348 9.46417 35.04 9.70432 34.895C12.2298 33.3751 14.8612 31.9976 17.5881 30.7703C17.8567 30.6487 18.0297 30.3949 18.0297 30.1153V10.8722C18.0297 10.6729 17.9445 10.4838 17.7947 10.3466C12.9942 5.98897 6.88186 2.40809 0.710135 0.0363666C0.36927 -0.0930941 0 0.145114 0 0.48689Z" fill="black"/>
</svg>
