<svg width="69" height="61" viewBox="0 0 69 61" fill="none" xmlns="http://www.w3.org/2000/svg">
<path d="M69 0.942963V21.3855C69 22.009 68.6287 22.5785 68.0428 22.8701C59.638 27.068 52.0606 32.2527 45.5569 38.2177C44.4207 39.2582 45.8073 40.967 47.1716 40.2135C53.6933 36.6121 60.5952 33.5443 67.7923 31.0417C68.3738 30.8399 68.9955 31.248 68.9955 31.8356V51.287C68.9955 51.7713 68.6958 52.2153 68.2306 52.4261C63.0553 54.7583 58.1619 57.4583 53.6038 60.4722C53.161 60.7682 52.575 60.7772 52.1188 60.5036C47.7665 57.8844 43.2264 55.5163 38.5342 53.3994C38.069 53.1886 37.7693 52.7491 37.7693 52.2647V18.9323C37.7693 18.5869 37.9169 18.2595 38.1764 18.0218C46.4872 10.4736 57.0794 4.27082 67.7699 0.162575C68.3559 -0.0616743 69 0.350945 69 0.942963Z" fill="black"/>
<path d="M0.227219 0.942963V21.3855C0.227219 22.009 0.59848 22.5786 1.18445 22.8701C9.58479 27.0725 17.1621 32.2527 23.6704 38.2222C24.8065 39.2627 23.4199 40.9715 22.0556 40.218C15.5294 36.6121 8.62757 33.5443 1.43046 31.0462C0.84897 30.8399 0.227219 31.2525 0.227219 31.8356V51.0224C0.227219 51.6727 0.625318 52.2602 1.24707 52.5428C6.35527 54.8615 11.1817 57.5346 15.686 60.5171C16.0886 60.7862 16.6209 60.7951 17.0369 60.544C21.4115 57.9113 25.9695 55.5253 30.693 53.3994C31.1582 53.1886 31.4579 52.7491 31.4579 52.2647V18.9323C31.4579 18.5869 31.3103 18.2595 31.0509 18.0218C22.7355 10.4736 12.1478 4.27082 1.4573 0.162575C0.866862 -0.0616743 0.227219 0.350945 0.227219 0.942963Z" fill="black"/>
</svg>
