<svg width="72" height="72" viewBox="0 0 72 72" fill="none" xmlns="http://www.w3.org/2000/svg">
<path d="M35.2233 26.0493L35.2233 28.3121C35.2233 28.4406 35.2705 28.5635 35.3531 28.6501L41.31 34.7651L28.0151 34.7651C27.9112 34.7651 27.8262 34.8656 27.8262 34.9885L27.8262 36.6646C27.8262 36.7876 27.9112 36.8881 28.0151 36.8881L41.31 36.8881L35.3531 43.0031C35.2705 43.0869 35.2233 43.2098 35.2233 43.3411L35.2233 45.6038C35.2233 45.7938 35.4145 45.8972 35.5349 45.7715L44.5658 36.4998C44.6476 36.416 44.7131 36.3124 44.758 36.196C44.8029 36.0796 44.8262 35.9532 44.8262 35.8252C44.8262 35.6972 44.8029 35.5708 44.758 35.4544C44.7131 35.338 44.6476 35.2344 44.5658 35.1506L35.5349 25.8817C35.4121 25.756 35.2233 25.8594 35.2233 26.0493Z" fill="#FCC312"/>
<circle cx="35.9133" cy="35.9133" r="34.9133" stroke="#FCC312" stroke-width="2"/>
</svg>
