<svg width="72" height="72" viewBox="0 0 72 72" fill="none" xmlns="http://www.w3.org/2000/svg">
<path d="M36.6029 45.7773L36.6029 43.5146C36.6029 43.3861 36.5557 43.2632 36.4731 43.1766L30.5162 37.0616L43.8111 37.0616C43.915 37.0616 44 36.961 44 36.8381L44 35.162C44 35.0391 43.915 34.9385 43.8111 34.9385L30.5162 34.9385L36.4731 28.8236C36.5557 28.7398 36.6029 28.6168 36.6029 28.4855L36.6029 26.2228C36.6029 26.0329 36.4117 25.9295 36.2913 26.0552L27.2603 35.3268C27.1786 35.4106 27.1131 35.5143 27.0682 35.6306C27.0232 35.747 27 35.8735 27 36.0015C27 36.1294 27.0232 36.2559 27.0682 36.3723C27.1131 36.4887 27.1786 36.5923 27.2603 36.6761L36.2913 45.9449C36.414 46.0706 36.6029 45.9673 36.6029 45.7773Z" fill="#FCC312"/>
<circle cx="35.9129" cy="35.9134" r="34.9133" transform="rotate(-180 35.9129 35.9134)" stroke="#FCC312" stroke-width="2"/>
</svg>
