<svg width="14" height="15" viewBox="0 0 14 15" fill="none" xmlns="http://www.w3.org/2000/svg">
<path d="M8.10093 14.6896L8.10093 13.1214C8.10093 13.0323 8.06593 12.9472 8.00468 12.8871L3.58918 8.64907L13.444 8.64907C13.521 8.64907 13.584 8.57937 13.584 8.49418L13.584 7.33254C13.584 7.24735 13.521 7.17766 13.444 7.17766L3.58918 7.17765L8.00468 2.93959C8.06593 2.88151 8.10093 2.79632 8.10093 2.70533L8.10093 1.13711C8.10093 1.00545 7.95917 0.933819 7.86992 1.02094L1.1758 7.44677C1.11522 7.50485 1.06665 7.57666 1.03335 7.65733C1.00006 7.73801 0.982826 7.82565 0.982826 7.91433C0.982826 8.00301 1.00006 8.09066 1.03335 8.17133C1.06665 8.252 1.11522 8.32381 1.1758 8.38189L7.86992 14.8058C7.96092 14.8929 8.10093 14.8213 8.10093 14.6896Z" fill="black"/>
</svg>
