<svg width="8" height="8" viewBox="0 0 8 8" fill="none" xmlns="http://www.w3.org/2000/svg">
<path d="M1.58839 4.39773L1.56897 4.39773L1.58298 4.41118L4.04139 6.7708C4.0414 6.77081 4.0414 6.77082 4.04141 6.77082C4.07394 6.80271 4.09264 6.84809 4.09264 6.89566L4.09264 7.76881C4.09264 7.80257 4.07477 7.82814 4.05161 7.83986C4.02858 7.85152 4.00004 7.84969 3.97723 7.82785L0.250066 4.25115L0.244657 4.25678L0.250064 4.25114C0.217152 4.21958 0.190708 4.18052 0.172567 4.13656C0.154425 4.09261 0.145026 4.04482 0.145026 3.99645C0.145026 3.94808 0.154425 3.9003 0.172567 3.85634C0.190708 3.81239 0.217152 3.77332 0.250064 3.74176L0.250067 3.74176L3.97724 0.163968L3.97728 0.163923C3.99957 0.142171 4.02807 0.140286 4.05126 0.151969C4.07456 0.163709 4.09264 0.189304 4.09264 0.22301L4.09264 1.09617C4.09264 1.14487 4.0739 1.19019 4.04148 1.22093L4.04145 1.22097L1.58298 3.58065L1.56897 3.5941L1.58839 3.5941L7.07537 3.5941C7.1132 3.5941 7.14551 3.62864 7.14551 3.67252L7.14551 4.3193C7.14551 4.36318 7.1132 4.39773 7.07537 4.39773L1.58839 4.39773Z" fill="#FCC312" stroke="#FCC312" stroke-width="0.015625"/>
</svg>
