<svg width="8" height="8" viewBox="0 0 8 8" fill="none" xmlns="http://www.w3.org/2000/svg">
<path d="M6.40331 3.59409L6.42273 3.59409L6.40872 3.58064L3.95031 1.22102C3.9503 1.22101 3.9503 1.221 3.95029 1.221C3.91776 1.18911 3.89906 1.14373 3.89906 1.09616L3.89906 0.223006C3.89906 0.189255 3.91693 0.163678 3.94009 0.151958C3.96311 0.140303 3.99166 0.142132 4.01447 0.163971L7.74163 3.74068L7.74704 3.73504L7.74163 3.74068C7.77455 3.77224 7.80099 3.81131 7.81913 3.85526C7.83727 3.89921 7.84667 3.947 7.84667 3.99537C7.84667 4.04374 7.83727 4.09152 7.81913 4.13548C7.80099 4.17943 7.77455 4.2185 7.74163 4.25006L7.74163 4.25006L4.01446 7.82785L4.01441 7.8279C3.99213 7.84965 3.96363 7.85153 3.94044 7.83985C3.91714 7.82811 3.89906 7.80252 3.89906 7.76881L3.89906 6.89565C3.89906 6.84695 3.9178 6.80163 3.95022 6.77089L3.95025 6.77085L6.40872 4.41117L6.42273 4.39773L6.40331 4.39773L0.916333 4.39773C0.878496 4.39773 0.846191 4.36318 0.846191 4.3193L0.846191 3.67252C0.846191 3.62864 0.878496 3.59409 0.916333 3.59409L6.40331 3.59409Z" fill="#FCC312" stroke="#FCC312" stroke-width="0.015625"/>
</svg>
