<svg width="13" height="15" viewBox="0 0 13 15" fill="none" xmlns="http://www.w3.org/2000/svg">
<path d="M5.72524 1.13704L5.72524 2.70526C5.72524 2.79432 5.76024 2.87951 5.8215 2.93953L10.237 7.17759L0.382195 7.17759C0.305191 7.17759 0.242187 7.24729 0.242187 7.33248L0.242187 8.49412C0.242187 8.57931 0.305191 8.649 0.382195 8.649L10.237 8.649L5.8215 12.8871C5.76024 12.9452 5.72524 13.0303 5.72524 13.1213L5.72524 14.6896C5.72524 14.8212 5.867 14.8928 5.95625 14.8057L12.6504 8.37989C12.7109 8.3218 12.7595 8.24999 12.7928 8.16932C12.8261 8.08865 12.8433 8.00101 12.8433 7.91233C12.8433 7.82365 12.8261 7.736 12.7928 7.65533C12.7595 7.57466 12.7109 7.50285 12.6504 7.44477L5.95625 1.02088C5.86525 0.933754 5.72524 1.00539 5.72524 1.13704Z" fill="black"/>
</svg>
